<?xml version="1.0" encoding="UTF-8"?>
<!-- Generator: Adobe Illustrator 14.0.0, SVG Export Plug-In . SVG Version: 6.00 Build 43363)  -->
<!DOCTYPE svg PUBLIC "-//W3C//DTD SVG 1.1//EN" "http://www.w3.org/Graphics/SVG/1.1/DTD/svg11.dtd">
<svg version="1.1" id="Layer_1" xmlns="http://www.w3.org/2000/svg" xmlns:xlink="http://www.w3.org/1999/xlink" x="0px" y="0px" width="841.89px" height="595.28px" viewBox="0 0 841.89 595.28" enable-background="new 0 0 841.89 595.28" xml:space="preserve">
<g>
	<path fill="#EFEFEF" d="M420.271,283.09c-8.283,0-14.998,6.715-14.998,15c0,8.283,6.715,15,14.998,15   c8.285,0,15.002-6.717,15.002-15C435.273,289.805,428.557,283.09,420.271,283.09z M420.271,309.004   c-6.027,0-10.912-4.887-10.912-10.914s4.885-10.914,10.912-10.914s10.914,4.887,10.914,10.914S426.299,309.004,420.271,309.004z"/>
	<circle fill="#EFEFEF" cx="415.106" cy="296.282" r="2.399"/>
	<circle fill="#EFEFEF" cx="425.439" cy="296.282" r="2.399"/>
	<path fill="#EFEFEF" d="M416.515,305.043c1.059-0.781,2.348-1.246,3.758-1.246s2.699,0.465,3.756,1.246   c0.441,0.33,1.068,0.236,1.396-0.205c0.33-0.444,0.236-1.07-0.205-1.4c-1.377-1.024-3.094-1.643-4.947-1.643   s-3.57,0.618-4.949,1.643c-0.441,0.33-0.533,0.956-0.205,1.4C415.448,305.279,416.073,305.371,416.515,305.043z"/>
</g>
</svg>