<?xml version="1.0" encoding="UTF-8" standalone="no"?>
<!-- Created with Inkscape (http://www.inkscape.org/) -->

<svg
   xmlns:dc="http://purl.org/dc/elements/1.1/"
   xmlns:cc="http://creativecommons.org/ns#"
   xmlns:rdf="http://www.w3.org/1999/02/22-rdf-syntax-ns#"
   xmlns:svg="http://www.w3.org/2000/svg"
   xmlns="http://www.w3.org/2000/svg"
   xmlns:sodipodi="http://sodipodi.sourceforge.net/DTD/sodipodi-0.dtd"
   xmlns:inkscape="http://www.inkscape.org/namespaces/inkscape"
   width="50"
   height="50"
   id="svg2"
   version="1.1"
   inkscape:version="0.48.4 r9939"
   sodipodi:docname="negative.svg">
  <defs
     id="defs4" />
  <sodipodi:namedview
     id="base"
     pagecolor="#ffffff"
     bordercolor="#666666"
     borderopacity="1.0"
     inkscape:pageopacity="0.0"
     inkscape:pageshadow="2"
     inkscape:zoom="11.2"
     inkscape:cx="43.375513"
     inkscape:cy="36.593564"
     inkscape:document-units="px"
     inkscape:current-layer="layer1"
     showgrid="false"
     fit-margin-top="10"
     fit-margin-left="10"
     fit-margin-right="10"
     fit-margin-bottom="10"
     inkscape:window-width="1375"
     inkscape:window-height="876"
     inkscape:window-x="65"
     inkscape:window-y="24"
     inkscape:window-maximized="1" />
  <metadata
     id="metadata7">
    <rdf:RDF>
      <cc:Work
         rdf:about="">
        <dc:format>image/svg+xml</dc:format>
        <dc:type
           rdf:resource="http://purl.org/dc/dcmitype/StillImage" />
        <dc:title />
      </cc:Work>
    </rdf:RDF>
  </metadata>
  <g
     inkscape:label="Calque 1"
     inkscape:groupmode="layer"
     id="layer1"
     transform="translate(-286.42857,-381.6479)">
    <g
       id="g2986"
       transform="translate(-108.84443,108.5579)">
      <path
         id="path2988"
         d="m 420.271,283.09 c -8.283,0 -14.998,6.715 -14.998,15 0,8.283 6.715,15 14.998,15 8.285,0 15.002,-6.717 15.002,-15 0,-8.285 -6.716,-15 -15.002,-15 z m 0,25.914 c -6.027,0 -10.912,-4.887 -10.912,-10.914 0,-6.027 4.885,-10.914 10.912,-10.914 6.027,0 10.914,4.887 10.914,10.914 0,6.027 -4.886,10.914 -10.914,10.914 z"
         inkscape:connector-curvature="0"
         style="fill:#efefef" />
      <circle
         id="circle2990"
         r="2.3989999"
         cy="296.28201"
         cx="415.10599"
         sodipodi:cx="415.10599"
         sodipodi:cy="296.28201"
         sodipodi:rx="2.3989999"
         sodipodi:ry="2.3989999"
         style="fill:#efefef"
         d="m 417.50499,296.28201 c 0,1.32493 -1.07407,2.399 -2.399,2.399 -1.32493,0 -2.399,-1.07407 -2.399,-2.399 0,-1.32493 1.07407,-2.399 2.399,-2.399 1.32493,0 2.399,1.07407 2.399,2.399 z" />
      <circle
         id="circle2992"
         r="2.3989999"
         cy="296.28201"
         cx="425.439"
         sodipodi:cx="425.439"
         sodipodi:cy="296.28201"
         sodipodi:rx="2.3989999"
         sodipodi:ry="2.3989999"
         style="fill:#efefef"
         d="m 427.838,296.28201 c 0,1.32493 -1.07407,2.399 -2.399,2.399 -1.32494,0 -2.399,-1.07407 -2.399,-2.399 0,-1.32493 1.07406,-2.399 2.399,-2.399 1.32493,0 2.399,1.07407 2.399,2.399 z" />
      <path
         id="path2994"
         d="m 416.515,305.043 c 1.059,-0.781 2.348,-1.246 3.758,-1.246 1.41,0 2.699,0.465 3.756,1.246 0.441,0.33 1.068,0.236 1.396,-0.205 0.33,-0.444 0.236,-1.07 -0.205,-1.4 -1.377,-1.024 -3.094,-1.643 -4.947,-1.643 -1.853,0 -3.57,0.618 -4.949,1.643 -0.441,0.33 -0.533,0.956 -0.205,1.4 0.329,0.441 0.954,0.533 1.396,0.205 z"
         inkscape:connector-curvature="0"
         style="fill:#efefef" />
    </g>
  </g>
</svg>
