<?xml version="1.0" encoding="UTF-8"?>
<!-- Generator: Adobe Illustrator 14.0.0, SVG Export Plug-In . SVG Version: 6.00 Build 43363)  -->
<!DOCTYPE svg PUBLIC "-//W3C//DTD SVG 1.1//EN" "http://www.w3.org/Graphics/SVG/1.1/DTD/svg11.dtd">
<svg version="1.1" id="Layer_1" xmlns="http://www.w3.org/2000/svg" xmlns:xlink="http://www.w3.org/1999/xlink" x="0px" y="0px" width="841.89px" height="595.28px" viewBox="0 0 841.89 595.28" enable-background="new 0 0 841.89 595.28" xml:space="preserve">
<g>
	<path fill="#EFEFEF" d="M367.938,189.069c-8.283,0-14.998,6.716-14.998,15s6.715,15,14.998,15c8.285,0,15.002-6.716,15.002-15   S376.224,189.069,367.938,189.069z M367.938,214.983c-6.027,0-10.912-4.887-10.912-10.914s4.885-10.914,10.912-10.914   s10.914,4.886,10.914,10.914S373.966,214.983,367.938,214.983z"/>
	<circle fill="#EFEFEF" cx="362.773" cy="202.262" r="2.399"/>
	<circle fill="#EFEFEF" cx="373.106" cy="202.262" r="2.4"/>
	<path fill="#EFEFEF" d="M371.696,208.699c-1.059,0.782-2.348,1.247-3.758,1.247s-2.699-0.465-3.756-1.247   c-0.441-0.33-1.068-0.236-1.396,0.206c-0.33,0.444-0.236,1.069,0.205,1.399c1.377,1.025,3.094,1.643,4.947,1.643   s3.57-0.618,4.949-1.643c0.441-0.33,0.533-0.956,0.205-1.399C372.763,208.463,372.138,208.371,371.696,208.699z"/>
</g>
</svg>